<svg width="24" height="25" viewBox="0 0 24 25" fill="none" xmlns="http://www.w3.org/2000/svg">
<path fill-rule="evenodd" clip-rule="evenodd" d="M20.8066 8.60335L20.1842 7.52326C19.6576 6.60934 18.4906 6.29406 17.5755 6.81845V6.81845C17.1398 7.07508 16.62 7.14789 16.1306 7.02082C15.6413 6.89376 15.2225 6.57725 14.9668 6.14111C14.8022 5.86389 14.7138 5.54813 14.7105 5.22578V5.22578C14.7253 4.70896 14.5303 4.20814 14.17 3.83741C13.8096 3.46667 13.3145 3.2576 12.7974 3.25781H11.5434C11.0369 3.25781 10.5513 3.45965 10.1939 3.81868C9.83663 4.17771 9.63711 4.66433 9.63955 5.17086V5.17086C9.62454 6.21666 8.77242 7.05655 7.72651 7.05644C7.40415 7.05309 7.0884 6.96468 6.81117 6.80015V6.80015C5.896 6.27575 4.72905 6.59103 4.20248 7.50495L3.53429 8.60335C3.00835 9.51613 3.31934 10.6823 4.22994 11.212V11.212C4.82184 11.5538 5.18647 12.1853 5.18647 12.8688C5.18647 13.5523 4.82184 14.1838 4.22994 14.5255V14.5255C3.3205 15.0517 3.00917 16.2151 3.53429 17.1251V17.1251L4.16586 18.2143C4.41259 18.6595 4.82654 18.988 5.31613 19.1272C5.80572 19.2663 6.33058 19.2046 6.77456 18.9558V18.9558C7.21102 18.7011 7.73113 18.6313 8.21928 18.7619C8.70743 18.8926 9.12317 19.2128 9.3741 19.6514C9.53864 19.9286 9.62705 20.2444 9.6304 20.5667V20.5667C9.6304 21.6233 10.4869 22.4798 11.5434 22.4798H12.7974C13.8504 22.4798 14.7054 21.6289 14.7105 20.5759V20.5759C14.708 20.0678 14.9088 19.5798 15.2681 19.2205C15.6274 18.8612 16.1154 18.6604 16.6235 18.6628C16.9451 18.6715 17.2596 18.7595 17.5389 18.9191V18.9191C18.4516 19.4451 19.6179 19.1341 20.1476 18.2235V18.2235L20.8066 17.1251C21.0617 16.6872 21.1317 16.1657 21.0011 15.6761C20.8706 15.1865 20.5502 14.7691 20.1109 14.5164V14.5164C19.6717 14.2637 19.3513 13.8463 19.2207 13.3567C19.0902 12.867 19.1602 12.3456 19.4153 11.9077C19.5812 11.6181 19.8213 11.3779 20.1109 11.212V11.212C21.0161 10.6826 21.3263 9.52323 20.8066 8.6125V8.6125V8.60335Z" stroke="white" stroke-width="1.5" stroke-linecap="round" stroke-linejoin="round"/>
<circle cx="12.175" cy="12.8688" r="2.63616" stroke="white" stroke-width="1.5" stroke-linecap="round" stroke-linejoin="round"/>
</svg>
