<svg width="20" height="20" viewBox="0 0 20 20" fill="none" xmlns="http://www.w3.org/2000/svg">
<path d="M2.74075 17.5705H18.2963C18.869 17.5705 19.3333 18.0348 19.3333 18.6075C19.3333 19.1803 18.869 19.6446 18.2963 19.6446H1.70371C1.13097 19.6446 0.666672 19.1803 0.666672 18.6075V2.01493C0.666672 1.44219 1.13097 0.977898 1.70371 0.977898C2.27645 0.977898 2.74075 1.44219 2.74075 2.01493V17.5705Z" fill="white"/>
<path opacity="0.5" d="M6.60843 13.0946C6.21671 13.5124 5.56044 13.5336 5.1426 13.1419C4.72477 12.7501 4.7036 12.0939 5.09532 11.676L8.98421 7.52788C9.36305 7.12379 9.99258 7.08874 10.4139 7.44829L13.4833 10.0675L17.4824 5.00197C17.8373 4.55243 18.4894 4.47572 18.9389 4.83061C19.3884 5.1855 19.4652 5.83762 19.1103 6.28716L14.4436 12.1983C14.0791 12.66 13.404 12.7264 12.9565 12.3445L9.82044 9.66843L6.60843 13.0946Z" fill="white"/>
</svg>
