<svg width="24" height="25" viewBox="0 0 24 25" fill="none" xmlns="http://www.w3.org/2000/svg">
<path fill-rule="evenodd" clip-rule="evenodd" d="M17.0137 22.2703H8.6659C5.59954 22.2703 3.24714 21.1628 3.91533 16.7051L4.69336 10.6639C5.10526 8.43965 6.52402 7.58839 7.76888 7.58839H17.9474C19.2105 7.58839 20.5469 8.50373 21.0229 10.6639L21.8009 16.7051C22.3684 20.6593 20.0801 22.2703 17.0137 22.2703Z" stroke="white" stroke-width="1.5" stroke-linecap="round" stroke-linejoin="round"/>
<path d="M17.151 7.36871C17.151 4.98264 15.2167 3.04835 12.8307 3.04835V3.04835C11.6817 3.04348 10.5781 3.49651 9.76386 4.30726C8.94967 5.11802 8.49198 6.2197 8.49199 7.36871V7.36871" stroke="white" stroke-width="1.5" stroke-linecap="round" stroke-linejoin="round"/>
<path d="M15.7963 11.8721H15.7506" stroke="white" stroke-width="1.5" stroke-linecap="round" stroke-linejoin="round"/>
<path d="M9.96567 11.8721H9.91991" stroke="white" stroke-width="1.5" stroke-linecap="round" stroke-linejoin="round"/>
</svg>
