<svg width="25" height="25" viewBox="0 0 25 25" fill="none" xmlns="http://www.w3.org/2000/svg">
<path d="M14.0089 17.2297H12.1289C10.7989 17.2297 9.70891 16.1097 9.70891 14.7297C9.70891 14.3197 10.0489 13.9797 10.4589 13.9797C10.8689 13.9797 11.2089 14.3197 11.2089 14.7297C11.2089 15.2797 11.6189 15.7297 12.1289 15.7297H14.0089C14.3989 15.7297 14.7089 15.3797 14.7089 14.9497C14.7089 14.4097 14.5589 14.3297 14.2189 14.2097L11.2089 13.1597C10.5689 12.9297 9.70891 12.4697 9.70891 10.9997C9.70891 9.74973 10.6989 8.71973 11.9089 8.71973H13.7889C15.1189 8.71973 16.2089 9.83973 16.2089 11.2197C16.2089 11.6297 15.8689 11.9697 15.4589 11.9697C15.0489 11.9697 14.7089 11.6297 14.7089 11.2197C14.7089 10.6697 14.2989 10.2197 13.7889 10.2197H11.9089C11.5189 10.2197 11.2089 10.5697 11.2089 10.9997C11.2089 11.5397 11.3589 11.6197 11.6989 11.7397L14.7089 12.7897C15.3489 13.0197 16.2089 13.4797 16.2089 14.9497C16.2089 16.2097 15.2189 17.2297 14.0089 17.2297Z" fill="white"/>
<path d="M12.9589 18.2297C12.5489 18.2297 12.2089 17.8897 12.2089 17.4797V8.47974C12.2089 8.06974 12.5489 7.72974 12.9589 7.72974C13.3689 7.72974 13.7089 8.06974 13.7089 8.47974V17.4797C13.7089 17.8897 13.3689 18.2297 12.9589 18.2297Z" fill="white"/>
<path d="M12.9589 23.7297C7.02891 23.7297 2.20891 18.9097 2.20891 12.9797C2.20891 7.04974 7.02891 2.22974 12.9589 2.22974C13.3689 2.22974 13.7089 2.56974 13.7089 2.97974C13.7089 3.38974 13.3689 3.72974 12.9589 3.72974C7.85891 3.72974 3.70891 7.87974 3.70891 12.9797C3.70891 18.0797 7.85891 22.2297 12.9589 22.2297C18.0589 22.2297 22.2089 18.0797 22.2089 12.9797C22.2089 12.5697 22.5489 12.2297 22.9589 12.2297C23.3689 12.2297 23.7089 12.5697 23.7089 12.9797C23.7089 18.9097 18.8889 23.7297 12.9589 23.7297Z" fill="white"/>
<path d="M22.9589 7.72974C22.5489 7.72974 22.2089 7.38974 22.2089 6.97974V3.72974H18.9589C18.5489 3.72974 18.2089 3.38974 18.2089 2.97974C18.2089 2.56974 18.5489 2.22974 18.9589 2.22974H22.9589C23.3689 2.22974 23.7089 2.56974 23.7089 2.97974V6.97974C23.7089 7.38974 23.3689 7.72974 22.9589 7.72974Z" fill="white"/>
<path d="M17.9588 8.72974C17.7688 8.72974 17.5788 8.65974 17.4288 8.50974C17.1388 8.21974 17.1388 7.73974 17.4288 7.44974L22.4288 2.44974C22.7188 2.15974 23.1988 2.15974 23.4888 2.44974C23.7788 2.73974 23.7788 3.21974 23.4888 3.50974L18.4888 8.50974C18.3388 8.65974 18.1488 8.72974 17.9588 8.72974Z" fill="white"/>
</svg>
