<svg width="24" height="25" viewBox="0 0 24 25" fill="none" xmlns="http://www.w3.org/2000/svg">
<path d="M12.12 12.9063C12.05 12.8963 11.96 12.8963 11.88 12.9063C10.12 12.8463 8.72005 11.4063 8.72005 9.63625C8.72005 7.82625 10.18 6.35625 12 6.35625C13.81 6.35625 15.28 7.82625 15.28 9.63625C15.27 11.4063 13.88 12.8463 12.12 12.9063Z" stroke="white" stroke-width="1.5" stroke-linecap="round" stroke-linejoin="round"/>
<path d="M18.74 19.5062C16.96 21.1362 14.6 22.1262 12 22.1262C9.40004 22.1262 7.04004 21.1362 5.26004 19.5062C5.36004 18.5662 5.96004 17.6462 7.03004 16.9262C9.77004 15.1062 14.25 15.1062 16.97 16.9262C18.04 17.6462 18.64 18.5662 18.74 19.5062Z" stroke="white" stroke-width="1.5" stroke-linecap="round" stroke-linejoin="round"/>
<path d="M12 22.1263C17.5229 22.1263 22 17.6491 22 12.1263C22 6.6034 17.5229 2.12625 12 2.12625C6.4772 2.12625 2.00005 6.6034 2.00005 12.1263C2.00005 17.6491 6.4772 22.1263 12 22.1263Z" stroke="white" stroke-width="1.5" stroke-linecap="round" stroke-linejoin="round"/>
</svg>
