<svg width="127" height="24" viewBox="0 0 127 24" fill="none" xmlns="http://www.w3.org/2000/svg">
<path d="M4.96553 18.8483L0 6.21124H3.2932L6.50921 15.1011L9.75095 6.21124H12.015L15.2568 15.1528L18.4728 6.21124H21.5859L16.6461 18.8483H13.8417L10.7801 10.7079L7.76989 18.8483H4.96553Z" fill="black"/>
<path d="M27.3174 19.1067C26.4084 19.1067 25.5936 18.9345 24.8733 18.5899C24.17 18.2281 23.6126 17.7457 23.2009 17.1427C22.8064 16.5397 22.6092 15.8592 22.6092 15.1011C22.6092 14.1708 22.8493 13.4386 23.3296 12.9045C23.8098 12.3532 24.5902 11.9569 25.6708 11.7157C26.7514 11.4745 28.2008 11.3539 30.0189 11.3539H30.9194V10.8112C30.9194 9.94981 30.7307 9.32959 30.3533 8.95056C29.976 8.57154 29.3414 8.38202 28.4495 8.38202C27.7462 8.38202 27.0258 8.49401 26.2883 8.71798C25.5508 8.92472 24.8046 9.25206 24.05 9.7L23.1237 7.50337C23.5697 7.19326 24.0928 6.92622 24.6932 6.70225C25.3106 6.46105 25.9538 6.28015 26.6228 6.15955C27.3089 6.02172 27.9521 5.95281 28.5524 5.95281C30.3876 5.95281 31.7512 6.38352 32.6431 7.24494C33.5351 8.08914 33.981 9.40712 33.981 11.1989V18.8483H30.9708V16.8326C30.6792 17.5389 30.2161 18.0989 29.5815 18.5124C28.9469 18.9086 28.1922 19.1067 27.3174 19.1067ZM27.9864 16.8843C28.8268 16.8843 29.5215 16.5914 30.0703 16.0056C30.6364 15.4199 30.9194 14.679 30.9194 13.7831V13.2146H30.0446C28.4323 13.2146 27.3089 13.3438 26.6742 13.6022C26.0567 13.8434 25.748 14.2914 25.748 14.9461C25.748 15.5146 25.9453 15.9798 26.3398 16.3416C26.7343 16.7034 27.2831 16.8843 27.9864 16.8843Z" fill="black"/>
<path d="M38.0943 18.8483V8.64045H35.6758V6.21124H38.0943V6.18539C38.0943 4.39363 38.5574 3.0412 39.4836 2.12809C40.427 1.21498 41.8849 0.698127 43.8574 0.577529L45.1181 0.5L45.3239 2.87753L44.1404 2.95506C43.1113 3.02397 42.3823 3.2824 41.9535 3.73034C41.5247 4.16105 41.3103 4.80712 41.3103 5.66854V6.21124H44.7321V8.64045H41.3103V18.8483H38.0943Z" fill="black"/>
<path d="M50.6335 19.1067C49.7245 19.1067 48.9097 18.9345 48.1894 18.5899C47.4861 18.2281 46.9287 17.7457 46.517 17.1427C46.1225 16.5397 45.9253 15.8592 45.9253 15.1011C45.9253 14.1708 46.1654 13.4386 46.6457 12.9045C47.1259 12.3532 47.9063 11.9569 48.9869 11.7157C50.0675 11.4745 51.5169 11.3539 53.335 11.3539H54.2355V10.8112C54.2355 9.94981 54.0468 9.32959 53.6694 8.95056C53.2921 8.57154 52.6575 8.38202 51.7656 8.38202C51.0623 8.38202 50.3419 8.49401 49.6044 8.71798C48.8669 8.92472 48.1208 9.25206 47.3661 9.7L46.4398 7.50337C46.8858 7.19326 47.4089 6.92622 48.0093 6.70225C48.6267 6.46105 49.2699 6.28015 49.9389 6.15955C50.625 6.02172 51.2682 5.95281 51.8685 5.95281C53.7038 5.95281 55.0673 6.38352 55.9592 7.24494C56.8512 8.08914 57.2971 9.40712 57.2971 11.1989V18.8483H54.2869V16.8326C53.9953 17.5389 53.5322 18.0989 52.8976 18.5124C52.263 18.9086 51.5083 19.1067 50.6335 19.1067ZM51.3025 16.8843C52.1429 16.8843 52.8376 16.5914 53.3864 16.0056C53.9525 15.4199 54.2355 14.679 54.2355 13.7831V13.2146H53.3607C51.7484 13.2146 50.625 13.3438 49.9903 13.6022C49.3728 13.8434 49.0641 14.2914 49.0641 14.9461C49.0641 15.5146 49.2614 15.9798 49.6559 16.3416C50.0504 16.7034 50.5992 16.8843 51.3025 16.8843Z" fill="black"/>
<path d="M60.5614 18.8483V0.629213H63.7774V8.04607C64.2062 7.35693 64.7808 6.84007 65.5012 6.49551C66.2215 6.13371 67.0191 5.95281 67.8939 5.95281C70.8612 5.95281 72.3448 7.68427 72.3448 11.1472V18.8483H69.1288V11.3022C69.1288 10.3202 68.9402 9.60524 68.5628 9.1573C68.2026 8.70936 67.6366 8.48539 66.8648 8.48539C65.9214 8.48539 65.1667 8.78689 64.6007 9.38989C64.0518 9.97565 63.7774 10.7596 63.7774 11.7416V18.8483H60.5614Z" fill="black"/>
<path d="M75.6885 13.2146V10.6303H83.3555V13.2146H75.6885Z" fill="black"/>
<path d="M86.7669 23.5V6.21124H89.9057V8.22697C90.2659 7.53783 90.8062 6.98652 91.5266 6.57303C92.2641 6.15955 93.096 5.95281 94.0222 5.95281C95.1199 5.95281 96.0804 6.21985 96.9037 6.75393C97.7442 7.28801 98.396 8.04607 98.8591 9.02809C99.3222 9.99288 99.5537 11.1558 99.5537 12.5169C99.5537 13.8607 99.3222 15.0322 98.8591 16.0315C98.396 17.0135 97.7528 17.7715 96.9295 18.3056C96.1062 18.8397 95.1371 19.1067 94.0222 19.1067C93.1303 19.1067 92.3241 18.9172 91.6037 18.5382C90.9005 18.1419 90.3602 17.6165 89.9829 16.9618V23.5H86.7669ZM93.1217 16.6517C94.0822 16.6517 94.8541 16.3071 95.4372 15.618C96.0204 14.9116 96.312 13.8779 96.312 12.5169C96.312 11.1386 96.0204 10.1135 95.4372 9.44157C94.8541 8.75243 94.0822 8.40787 93.1217 8.40787C92.1612 8.40787 91.3893 8.75243 90.8062 9.44157C90.223 10.1135 89.9314 11.1386 89.9314 12.5169C89.9314 13.8779 90.223 14.9116 90.8062 15.618C91.3893 16.3071 92.1612 16.6517 93.1217 16.6517Z" fill="black"/>
<path d="M107.931 19.1067C106.627 19.1067 105.495 18.8397 104.535 18.3056C103.574 17.7715 102.828 17.0135 102.297 16.0315C101.765 15.0322 101.499 13.8607 101.499 12.5169C101.499 11.173 101.765 10.0101 102.297 9.02809C102.828 8.04607 103.574 7.28801 104.535 6.75393C105.495 6.21985 106.627 5.95281 107.931 5.95281C109.235 5.95281 110.367 6.21985 111.327 6.75393C112.288 7.28801 113.034 8.04607 113.565 9.02809C114.097 10.0101 114.363 11.173 114.363 12.5169C114.363 13.8607 114.097 15.0322 113.565 16.0315C113.034 17.0135 112.288 17.7715 111.327 18.3056C110.367 18.8397 109.235 19.1067 107.931 19.1067ZM107.931 16.6517C108.892 16.6517 109.663 16.3071 110.247 15.618C110.83 14.9116 111.121 13.8779 111.121 12.5169C111.121 11.1386 110.83 10.1135 110.247 9.44157C109.663 8.75243 108.892 8.40787 107.931 8.40787C106.971 8.40787 106.199 8.75243 105.616 9.44157C105.032 10.1135 104.741 11.1386 104.741 12.5169C104.741 13.8779 105.032 14.9116 105.616 15.618C106.199 16.3071 106.971 16.6517 107.931 16.6517Z" fill="black"/>
<path d="M121.623 19.1067C120.559 19.1067 119.565 18.9775 118.638 18.7191C117.712 18.4607 116.94 18.0903 116.323 17.6079L117.146 15.4888C117.781 15.9195 118.493 16.2554 119.282 16.4966C120.071 16.7206 120.86 16.8326 121.649 16.8326C122.472 16.8326 123.081 16.6948 123.475 16.4191C123.887 16.1262 124.093 15.7472 124.093 15.282C124.093 14.5584 123.561 14.0933 122.498 13.8865L119.925 13.3955C117.746 12.982 116.657 11.8449 116.657 9.98427C116.657 9.1573 116.88 8.44232 117.326 7.83932C117.789 7.23633 118.424 6.77116 119.23 6.44382C120.036 6.11648 120.962 5.95281 122.009 5.95281C122.901 5.95281 123.758 6.08202 124.582 6.34045C125.405 6.58165 126.108 6.95206 126.691 7.45169L125.816 9.57079C125.319 9.1573 124.719 8.82996 124.016 8.58876C123.329 8.34756 122.669 8.22697 122.034 8.22697C121.194 8.22697 120.568 8.37341 120.156 8.66629C119.762 8.95918 119.565 9.34682 119.565 9.82921C119.565 10.5873 120.053 11.0524 121.031 11.2247L123.604 11.7157C124.719 11.9225 125.559 12.3015 126.125 12.8528C126.708 13.4041 127 14.1449 127 15.0753C127 16.333 126.511 17.3236 125.533 18.0472C124.556 18.7536 123.252 19.1067 121.623 19.1067Z" fill="black"/>
</svg>
