<svg width="24" height="25" viewBox="0 0 24 25" fill="none" xmlns="http://www.w3.org/2000/svg">
<path d="M22 6.12627V8.54627C22 10.1263 21 11.1263 19.42 11.1263H16V4.13627C16 3.02627 16.91 2.12627 18.02 2.12627C19.11 2.13627 20.11 2.57627 20.83 3.29627C21.55 4.02627 22 5.02627 22 6.12627Z" stroke="white" stroke-width="1.5" stroke-miterlimit="10" stroke-linecap="round" stroke-linejoin="round"/>
<path d="M2.00002 7.12627V21.1263C2.00002 21.9563 2.94001 22.4263 3.60001 21.9263L5.31001 20.6463C5.71001 20.3463 6.27001 20.3863 6.63001 20.7463L8.29002 22.4163C8.68002 22.8063 9.32001 22.8063 9.71001 22.4163L11.39 20.7363C11.74 20.3863 12.3 20.3463 12.69 20.6463L14.4 21.9263C15.06 22.4163 16 21.9463 16 21.1263V4.12627C16 3.02627 16.9 2.12627 18 2.12627H7.00002H6.00002C3.00002 2.12627 2.00002 3.91627 2.00002 6.12627V7.12627Z" stroke="white" stroke-width="1.5" stroke-miterlimit="10" stroke-linecap="round" stroke-linejoin="round"/>
<path d="M6.25002 10.1263H11.75" stroke="white" stroke-width="1.5" stroke-linecap="round" stroke-linejoin="round"/>
</svg>
