<svg width="24" height="25" viewBox="0 0 24 25" fill="none" xmlns="http://www.w3.org/2000/svg">
<path d="M9.15722 20.8976V17.8309C9.1572 17.0509 9.79312 16.417 10.581 16.4118H13.4671C14.2587 16.4118 14.9005 17.0472 14.9005 17.8309V17.8309V20.9071C14.9003 21.5694 15.4343 22.1107 16.103 22.1262H18.0271C19.9451 22.1262 21.5 20.5869 21.5 18.6881V18.6881V9.96406C21.4898 9.21705 21.1355 8.51557 20.538 8.05925L13.9577 2.81152C12.8049 1.89779 11.1662 1.89779 10.0134 2.81152L3.46203 8.06878C2.86226 8.52324 2.50739 9.22589 2.5 9.97358V18.6881C2.5 20.5869 4.05488 22.1262 5.97291 22.1262H7.89696C8.58235 22.1262 9.13797 21.5762 9.13797 20.8976V20.8976" stroke="#4B5563" stroke-width="1.5" stroke-linecap="round" stroke-linejoin="round"/>
</svg>
