<svg width="25" height="24" viewBox="0 0 25 24" fill="none" xmlns="http://www.w3.org/2000/svg">
<path d="M10.6528 22H14.6528C19.6528 22 21.6528 20 21.6528 15V9C21.6528 4 19.6528 2 14.6528 2H10.6528C5.65283 2 3.65283 4 3.65283 9V15C3.65283 20 5.65283 22 10.6528 22Z" stroke="#202224" stroke-width="1.5" stroke-linecap="round" stroke-linejoin="round"/>
<path d="M17.1528 7.57999V8.57999C17.1528 9.39999 16.4828 10.08 15.6528 10.08H9.65283C8.83283 10.08 8.15283 9.40999 8.15283 8.57999V7.57999C8.15283 6.75999 8.82283 6.07999 9.65283 6.07999H15.6528C16.4828 6.07999 17.1528 6.74999 17.1528 7.57999Z" stroke="#202224" stroke-width="1.5" stroke-linecap="round" stroke-linejoin="round"/>
<path d="M8.78895 14H8.8005" stroke="#202224" stroke-width="2" stroke-linecap="round" stroke-linejoin="round"/>
<path d="M12.6481 14H12.6596" stroke="#202224" stroke-width="2" stroke-linecap="round" stroke-linejoin="round"/>
<path d="M16.5072 14H16.5187" stroke="#202224" stroke-width="2" stroke-linecap="round" stroke-linejoin="round"/>
<path d="M8.78895 17.5H8.8005" stroke="#202224" stroke-width="2" stroke-linecap="round" stroke-linejoin="round"/>
<path d="M12.6481 17.5H12.6596" stroke="#202224" stroke-width="2" stroke-linecap="round" stroke-linejoin="round"/>
<path d="M16.5072 17.5H16.5187" stroke="#202224" stroke-width="2" stroke-linecap="round" stroke-linejoin="round"/>
</svg>
