<svg width="24" height="25" viewBox="0 0 24 25" fill="none" xmlns="http://www.w3.org/2000/svg">
<path d="M2.50008 14.2197V12.4897C2.50008 10.4197 4.19007 8.72971 6.26007 8.72971H17.7401C19.8101 8.72971 21.5001 10.4197 21.5001 12.4897V13.9297H19.4801C18.9201 13.9297 18.4101 14.1497 18.0401 14.5297C17.6201 14.9397 17.3801 15.5297 17.4401 16.1597C17.5301 17.2397 18.5201 18.0297 19.6001 18.0297H21.5001V19.2197C21.5001 21.2897 19.8101 22.9797 17.7401 22.9797H12.2601" stroke="white" stroke-width="1.5" stroke-linecap="round" stroke-linejoin="round"/>
<path d="M2.50008 13.3897V8.81975C2.50008 7.62975 3.23007 6.5697 4.34007 6.1497L12.2801 3.14971C13.5201 2.67971 14.8501 3.59973 14.8501 4.92973V8.72972" stroke="white" stroke-width="1.5" stroke-linecap="round" stroke-linejoin="round"/>
<path d="M22.5589 14.9499V17.0099C22.5589 17.5599 22.1189 18.0099 21.5589 18.0299H19.5989C18.5189 18.0299 17.5289 17.2399 17.4389 16.1599C17.3789 15.5299 17.6189 14.9399 18.0389 14.5299C18.4089 14.1499 18.9189 13.9299 19.4789 13.9299H21.5589C22.1189 13.9499 22.5589 14.3999 22.5589 14.9499Z" stroke="white" stroke-width="1.5" stroke-linecap="round" stroke-linejoin="round"/>
<path d="M7.00008 12.9797H14.0001" stroke="white" stroke-width="1.5" stroke-linecap="round" stroke-linejoin="round"/>
<path d="M3.00008 17.4797H8.34007C8.98007 17.4797 9.50008 17.9997 9.50008 18.6397V19.9197" stroke="white" stroke-width="1.5" stroke-miterlimit="10" stroke-linecap="round" stroke-linejoin="round"/>
<path d="M4.22008 16.2597L3.00008 17.4797L4.22008 18.6997" stroke="white" stroke-width="1.5" stroke-miterlimit="10" stroke-linecap="round" stroke-linejoin="round"/>
<path d="M9.50008 22.7597H4.16008C3.52008 22.7597 3.00008 22.2397 3.00008 21.5997V20.3197" stroke="white" stroke-width="1.5" stroke-miterlimit="10" stroke-linecap="round" stroke-linejoin="round"/>
<path d="M8.28133 23.98L9.50133 22.76L8.28133 21.54" stroke="white" stroke-width="1.5" stroke-miterlimit="10" stroke-linecap="round" stroke-linejoin="round"/>
</svg>
