<svg width="18" height="18" viewBox="0 0 18 18" fill="none" xmlns="http://www.w3.org/2000/svg">
<g clip-path="url(#clip0_1_1610)">
<path d="M9 6V9" stroke="white" stroke-width="1.7" stroke-linecap="round" stroke-linejoin="round"/>
<path d="M9 12H9.0077" stroke="white" stroke-width="1.7" stroke-linecap="round" stroke-linejoin="round"/>
<path fill-rule="evenodd" clip-rule="evenodd" d="M16.2 8.99999C16.2 10.9095 15.4414 12.7409 14.0912 14.0912C12.7409 15.4414 10.9095 16.2 8.99999 16.2C7.09043 16.2 5.25908 15.4414 3.90882 14.0912C2.55856 12.7409 1.79999 10.9095 1.79999 8.99999C1.79999 7.09043 2.55856 5.25908 3.90882 3.90882C5.25908 2.55856 7.09043 1.79999 8.99999 1.79999C10.9095 1.79999 12.7409 2.55856 14.0912 3.90882C15.4414 5.25908 16.2 7.09043 16.2 8.99999ZM9.89999 5.39999C9.89999 5.63868 9.80517 5.8676 9.63638 6.03638C9.4676 6.20517 9.23868 6.29999 8.99999 6.29999C8.76129 6.29999 8.53237 6.20517 8.36359 6.03638C8.19481 5.8676 8.09999 5.63868 8.09999 5.39999C8.09999 5.16129 8.19481 4.93237 8.36359 4.76359C8.53237 4.59481 8.76129 4.49999 8.99999 4.49999C9.23868 4.49999 9.4676 4.59481 9.63638 4.76359C9.80517 4.93237 9.89999 5.16129 9.89999 5.39999ZM8.09999 8.09999C7.86129 8.09999 7.63237 8.19481 7.46359 8.36359C7.29481 8.53237 7.19999 8.76129 7.19999 8.99999C7.19999 9.23868 7.29481 9.4676 7.46359 9.63638C7.63237 9.80517 7.86129 9.89999 8.09999 9.89999V12.6C8.09999 12.8387 8.19481 13.0676 8.36359 13.2364C8.53237 13.4052 8.76129 13.5 8.99999 13.5H9.89999C10.1387 13.5 10.3676 13.4052 10.5364 13.2364C10.7052 13.0676 10.8 12.8387 10.8 12.6C10.8 12.3613 10.7052 12.1324 10.5364 11.9636C10.3676 11.7948 10.1387 11.7 9.89999 11.7V8.99999C9.89999 8.76129 9.80517 8.53237 9.63638 8.36359C9.4676 8.19481 9.23868 8.09999 8.99999 8.09999H8.09999Z" fill="#5B93FF"/>
</g>
<defs>
<clipPath id="clip0_1_1610">
<rect width="18" height="18" fill="white"/>
</clipPath>
</defs>
</svg>
