<svg width="22" height="22" viewBox="0 0 22 22" fill="none" xmlns="http://www.w3.org/2000/svg">
<path fill-rule="evenodd" clip-rule="evenodd" d="M18.0716 18.0496C15.0155 21.1061 10.49 21.7664 6.78666 20.0538C6.23995 19.8336 5.79173 19.6557 5.36562 19.6557C4.17873 19.6628 2.70141 20.8136 1.9336 20.0467C1.1658 19.2788 2.31751 17.8003 2.31751 16.6063C2.31751 16.1801 2.14666 15.7399 1.92657 15.1921C0.213075 11.4894 0.874353 6.96242 3.9305 3.90694C7.83184 0.00416827 14.1703 0.00416851 18.0716 3.90594C21.98 7.81474 21.9729 14.1478 18.0716 18.0496Z" stroke="white" stroke-width="1.5" stroke-linecap="round" stroke-linejoin="round"/>
<path d="M14.9396 11.3928H14.9486" stroke="white" stroke-width="2" stroke-linecap="round" stroke-linejoin="round"/>
<path d="M10.9307 11.3928H10.9397" stroke="white" stroke-width="2" stroke-linecap="round" stroke-linejoin="round"/>
<path d="M6.92165 11.3928H6.93065" stroke="white" stroke-width="2" stroke-linecap="round" stroke-linejoin="round"/>
</svg>
