<svg width="24" height="25" viewBox="0 0 24 25" fill="none" xmlns="http://www.w3.org/2000/svg">
<path d="M8.50024 19.9797H8.00024C4.00024 19.9797 2.00024 18.9797 2.00024 13.9797V8.97968C2.00024 4.97968 4.00024 2.97968 8.00024 2.97968H16.0002C20.0002 2.97968 22.0002 4.97968 22.0002 8.97968V13.9797C22.0002 17.9797 20.0002 19.9797 16.0002 19.9797H15.5002C15.1902 19.9797 14.8902 20.1297 14.7002 20.3797L13.2002 22.3797C12.5402 23.2597 11.4602 23.2597 10.8002 22.3797L9.30024 20.3797C9.14024 20.1597 8.77024 19.9797 8.50024 19.9797Z" stroke="white" stroke-width="1.5" stroke-miterlimit="10" stroke-linecap="round" stroke-linejoin="round"/>
<path d="M7.00024 8.97968H17.0002" stroke="white" stroke-width="1.5" stroke-linecap="round" stroke-linejoin="round"/>
<path d="M7.00024 13.9797H13.0002" stroke="white" stroke-width="1.5" stroke-linecap="round" stroke-linejoin="round"/>
</svg>
