<svg width="25" height="24" viewBox="0 0 25 24" fill="none" xmlns="http://www.w3.org/2000/svg">
<path d="M12.6729 2.91C9.36286 2.91 6.67286 5.6 6.67286 8.91V11.8C6.67286 12.41 6.41286 13.34 6.10286 13.86L4.95286 15.77C4.24286 16.95 4.73286 18.26 6.03286 18.7C10.3429 20.14 14.9929 20.14 19.3029 18.7C20.5129 18.3 21.0429 16.87 20.3829 15.77L19.2329 13.86C18.9329 13.34 18.6729 12.41 18.6729 11.8V8.91C18.6729 5.61 15.9729 2.91 12.6729 2.91Z" stroke="#202224" stroke-width="1.5" stroke-miterlimit="10" stroke-linecap="round"/>
<path d="M14.5228 3.2C14.2128 3.11 13.8928 3.04 13.5628 3C12.6028 2.88 11.6828 2.95 10.8228 3.2C11.1128 2.46 11.8328 1.94 12.6728 1.94C13.5128 1.94 14.2328 2.46 14.5228 3.2Z" stroke="#202224" stroke-width="1.5" stroke-miterlimit="10" stroke-linecap="round" stroke-linejoin="round"/>
<path d="M15.6729 19.06C15.6729 20.71 14.3229 22.06 12.6729 22.06C11.8529 22.06 11.0929 21.72 10.5529 21.18C10.0129 20.64 9.67285 19.88 9.67285 19.06" stroke="#202224" stroke-width="1.5" stroke-miterlimit="10"/>
<circle cx="17.1528" cy="5.5" r="4.25" fill="#FF4739" stroke="#F5F6FA" stroke-width="1.5"/>
</svg>
