<svg width="24" height="25" viewBox="0 0 24 25" fill="none" xmlns="http://www.w3.org/2000/svg">
<path d="M12.0201 3.88965C8.71015 3.88965 6.02015 6.57965 6.02015 9.88965V12.7796C6.02015 13.3896 5.76015 14.3196 5.45015 14.8396L4.30015 16.7496C3.59015 17.9296 4.08015 19.2396 5.38015 19.6796C9.69015 21.1196 14.3401 21.1196 18.6501 19.6796C19.8601 19.2796 20.3901 17.8496 19.7301 16.7496L18.5801 14.8396C18.2801 14.3196 18.0201 13.3896 18.0201 12.7796V9.88965C18.0201 6.58965 15.3201 3.88965 12.0201 3.88965Z" stroke="white" stroke-width="1.5" stroke-miterlimit="10" stroke-linecap="round"/>
<path d="M13.8702 4.17968C13.5602 4.08968 13.2402 4.01968 12.9102 3.97968C11.9502 3.85968 11.0302 3.92968 10.1702 4.17968C10.4602 3.43968 11.1802 2.91968 12.0202 2.91968C12.8602 2.91968 13.5802 3.43968 13.8702 4.17968Z" stroke="white" stroke-width="1.5" stroke-miterlimit="10" stroke-linecap="round" stroke-linejoin="round"/>
<path d="M15.0202 20.0397C15.0202 21.6897 13.6702 23.0397 12.0202 23.0397C11.2002 23.0397 10.4402 22.6997 9.90016 22.1597C9.36016 21.6197 9.02016 20.8597 9.02016 20.0397" stroke="white" stroke-width="1.5" stroke-miterlimit="10"/>
</svg>
