<svg width="18" height="18" viewBox="0 0 18 18" fill="none" xmlns="http://www.w3.org/2000/svg">
<mask id="mask0_73_27" style="mask-type:alpha" maskUnits="userSpaceOnUse" x="0" y="0" width="17" height="17">
<path fill-rule="evenodd" clip-rule="evenodd" d="M0.319489 0.666656H16.5502V16.8975H0.319489V0.666656Z" fill="white"/>
</mask>
<g mask="url(#mask0_73_27)">
<path fill-rule="evenodd" clip-rule="evenodd" d="M8.43517 1.91666C4.64934 1.91666 1.56934 4.99582 1.56934 8.78166C1.56934 12.5675 4.64934 15.6475 8.43517 15.6475C12.2202 15.6475 15.3002 12.5675 15.3002 8.78166C15.3002 4.99582 12.2202 1.91666 8.43517 1.91666ZM8.43517 16.8975C3.96017 16.8975 0.319336 13.2567 0.319336 8.78166C0.319336 4.30666 3.96017 0.666656 8.43517 0.666656C12.9102 0.666656 16.5502 4.30666 16.5502 8.78166C16.5502 13.2567 12.9102 16.8975 8.43517 16.8975Z" fill="#999CA3"/>
</g>
<mask id="mask1_73_27" style="mask-type:alpha" maskUnits="userSpaceOnUse" x="13" y="13" width="5" height="5">
<path fill-rule="evenodd" clip-rule="evenodd" d="M13.0194 13.7558H17.2061V17.9347H13.0194V13.7558Z" fill="white"/>
</mask>
<g mask="url(#mask1_73_27)">
<path fill-rule="evenodd" clip-rule="evenodd" d="M16.5813 17.9347C16.4221 17.9347 16.2621 17.8739 16.1396 17.7522L13.203 14.8239C12.9588 14.5797 12.958 14.1839 13.2021 13.9397C13.4455 13.6939 13.8413 13.6956 14.0863 13.9381L17.023 16.8672C17.2671 17.1114 17.268 17.5064 17.0238 17.7506C16.9021 17.8739 16.7413 17.9347 16.5813 17.9347Z" fill="#999CA3"/>
</g>
</svg>
