<svg width="10" height="9" viewBox="0 0 10 9" fill="none" xmlns="http://www.w3.org/2000/svg">
<path d="M2.41051 5.18152C2.41051 5.46057 2.63672 5.68679 2.91577 5.68679C3.19482 5.68679 3.42104 5.46057 3.42104 5.18152L3.42104 2.35923L4.07429 3.01248C4.27161 3.2098 4.59152 3.2098 4.78884 3.01248C4.98616 2.81517 4.98616 2.49525 4.78884 2.29793L3.27305 0.782143C3.17829 0.687388 3.04978 0.634155 2.91577 0.634155C2.78177 0.634155 2.65325 0.687388 2.5585 0.782143L1.0427 2.29793C0.845385 2.49525 0.845385 2.81517 1.0427 3.01248C1.24002 3.2098 1.55994 3.2098 1.75725 3.01248L2.41051 2.35923L2.41051 5.18152Z" fill="#6B7280"/>
<path opacity="0.2" d="M7.58968 4.29809C7.58968 4.01904 7.36346 3.79283 7.08441 3.79283C6.80536 3.79283 6.57915 4.01904 6.57915 4.29809L6.57915 7.12038L5.92589 6.46713C5.72858 6.26981 5.40866 6.26981 5.21134 6.46713C5.01402 6.66445 5.01402 6.98436 5.21134 7.18168L6.72713 8.69747C6.82189 8.79223 6.95041 8.84546 7.08441 8.84546C7.21842 8.84546 7.34693 8.79223 7.44169 8.69747L8.95748 7.18168C9.1548 6.98436 9.1548 6.66445 8.95748 6.46713C8.76016 6.26981 8.44025 6.26981 8.24293 6.46713L7.58968 7.12038L7.58968 4.29809Z" fill="#6B7280"/>
</svg>
