<svg width="24" height="25" viewBox="0 0 24 25" fill="none" xmlns="http://www.w3.org/2000/svg">
<path d="M12 12.9797C14.7614 12.9797 17 10.7411 17 7.97971C17 5.21828 14.7614 2.97971 12 2.97971C9.23855 2.97971 6.99997 5.21828 6.99997 7.97971C6.99997 10.7411 9.23855 12.9797 12 12.9797Z" stroke="white" stroke-width="1.5" stroke-linecap="round" stroke-linejoin="round"/>
<path d="M3.40997 22.9797C3.40997 19.1097 7.25997 15.9797 12 15.9797C12.96 15.9797 13.89 16.1097 14.76 16.3497" stroke="white" stroke-width="1.5" stroke-linecap="round" stroke-linejoin="round"/>
<path d="M22 18.9797C22 19.2997 21.96 19.6097 21.88 19.9097C21.79 20.3097 21.63 20.6997 21.42 21.0397C20.73 22.1997 19.46 22.9797 18 22.9797C16.97 22.9797 16.04 22.5897 15.34 21.9497C15.04 21.6897 14.78 21.3797 14.58 21.0397C14.21 20.4397 14 19.7297 14 18.9797C14 17.8997 14.43 16.9097 15.13 16.1897C15.86 15.4397 16.88 14.9797 18 14.9797C19.18 14.9797 20.25 15.4897 20.97 16.3097C21.61 17.0197 22 17.9597 22 18.9797Z" stroke="white" stroke-width="1.5" stroke-miterlimit="10" stroke-linecap="round" stroke-linejoin="round"/>
<path d="M19.03 17.9197L16.92 20.0297" stroke="white" stroke-width="1.5" stroke-miterlimit="10" stroke-linecap="round" stroke-linejoin="round"/>
<path d="M16.94 17.9397L19.06 20.0497" stroke="white" stroke-width="1.5" stroke-miterlimit="10" stroke-linecap="round" stroke-linejoin="round"/>
</svg>
