<svg width="25" height="25" viewBox="0 0 25 25" fill="none" xmlns="http://www.w3.org/2000/svg">
<path d="M17.9233 8.0297C17.6833 7.9897 17.4333 7.97972 17.1733 7.97972H7.17334C6.89334 7.97972 6.62334 7.99971 6.36334 8.03971C6.50334 7.75971 6.70334 7.49975 6.94334 7.25975L10.1933 3.99974C11.5633 2.63974 13.7833 2.63974 15.1533 3.99974L16.9033 5.76969C17.5433 6.39969 17.8833 7.1997 17.9233 8.0297Z" stroke="white" stroke-width="1.5" stroke-linecap="round" stroke-linejoin="round"/>
<path d="M9.17194 19.9797C9.17194 20.7297 8.96194 21.4397 8.59194 22.0397C7.90194 23.1997 6.63194 23.9797 5.17194 23.9797C3.71194 23.9797 2.44194 23.1997 1.75194 22.0397C1.38194 21.4397 1.17194 20.7297 1.17194 19.9797C1.17194 17.7697 2.96194 15.9797 5.17194 15.9797C7.38194 15.9797 9.17194 17.7697 9.17194 19.9797Z" stroke="white" stroke-width="1.5" stroke-miterlimit="10" stroke-linecap="round" stroke-linejoin="round"/>
<path d="M6.66365 19.9592H3.68365" stroke="white" stroke-width="1.5" stroke-miterlimit="10" stroke-linecap="round" stroke-linejoin="round"/>
<path d="M5.17194 18.4993V21.4893" stroke="white" stroke-width="1.5" stroke-miterlimit="10" stroke-linecap="round" stroke-linejoin="round"/>
<path d="M22.1719 12.9797V17.9797C22.1719 20.9797 20.1719 22.9797 17.1719 22.9797H7.80194C8.11194 22.7197 8.38194 22.3997 8.59194 22.0397C8.96194 21.4397 9.17194 20.7297 9.17194 19.9797C9.17194 17.7697 7.38194 15.9797 5.17194 15.9797C3.97194 15.9797 2.90194 16.5097 2.17194 17.3397V12.9797C2.17194 10.2597 3.81194 8.35973 6.36194 8.03973C6.62194 7.99973 6.89194 7.97974 7.17194 7.97974H17.1719C17.4319 7.97974 17.6819 7.98972 17.9219 8.02972C20.5019 8.32972 22.1719 10.2397 22.1719 12.9797Z" stroke="white" stroke-width="1.5" stroke-linecap="round" stroke-linejoin="round"/>
<path d="M22.1719 13.4797H19.1719C18.0719 13.4797 17.1719 14.3797 17.1719 15.4797C17.1719 16.5797 18.0719 17.4797 19.1719 17.4797H22.1719" stroke="white" stroke-width="1.5" stroke-linecap="round" stroke-linejoin="round"/>
</svg>
